<mxfile host="app.diagrams.net" agent="Mozilla/5.0 (Windows NT 10.0; Win64; x64; rv:140.0) Gecko/20100101 Firefox/140.0" version="28.2.2" pages="2">
  <diagram name="Página-1 teste" id="JTCnFu_GSiAf1vfXkW5V">
    <mxGraphModel dx="1244" dy="634" grid="1" gridSize="10" guides="1" tooltips="1" connect="1" arrows="1" fold="1" page="1" pageScale="1" pageWidth="1169" pageHeight="827" math="0" shadow="0">
      <root>
        <mxCell id="39ut7mN1jGlLOAhWrBHH-0" />
        <mxCell id="39ut7mN1jGlLOAhWrBHH-1" parent="39ut7mN1jGlLOAhWrBHH-0" />
        <mxCell id="-eOnYCEfxz8007zjaOuk-0" value="&lt;font style=&quot;font-size: 24px;&quot;&gt;Objetivo do teste&lt;/font&gt;" style="swimlane;whiteSpace=wrap;html=1;startSize=40;" vertex="1" parent="39ut7mN1jGlLOAhWrBHH-1">
          <mxGeometry x="15" y="110" width="1140" height="100" as="geometry" />
        </mxCell>
        <mxCell id="-eOnYCEfxz8007zjaOuk-1" value="&lt;font style=&quot;font-size: 24px;&quot;&gt;Verificar se realiza&amp;nbsp; o login usando email e senha no sait do TINKERCAD.&lt;/font&gt;" style="rounded=1;whiteSpace=wrap;html=1;" vertex="1" parent="-eOnYCEfxz8007zjaOuk-0">
          <mxGeometry x="15" y="50" width="1100" height="40" as="geometry" />
        </mxCell>
        <mxCell id="-eOnYCEfxz8007zjaOuk-2" value="&lt;font style=&quot;font-size: 24px;&quot;&gt;Ações do passo&lt;/font&gt;" style="swimlane;fontStyle=0;childLayout=stackLayout;horizontal=1;startSize=60;horizontalStack=0;resizeParent=1;resizeParentMax=0;resizeLast=0;collapsible=1;marginBottom=0;whiteSpace=wrap;html=1;" vertex="1" parent="39ut7mN1jGlLOAhWrBHH-1">
          <mxGeometry x="15" y="400" width="530" height="300" as="geometry" />
        </mxCell>
        <mxCell id="-eOnYCEfxz8007zjaOuk-3" value="&lt;font style=&quot;font-size: 18px;&quot;&gt;Item 1 -Acessar a pagina do TINKERCAD&lt;/font&gt;" style="text;strokeColor=none;fillColor=none;align=left;verticalAlign=middle;spacingLeft=4;spacingRight=4;overflow=hidden;points=[[0,0.5],[1,0.5]];portConstraint=eastwest;rotatable=0;whiteSpace=wrap;html=1;" vertex="1" parent="-eOnYCEfxz8007zjaOuk-2">
          <mxGeometry y="60" width="530" height="30" as="geometry" />
        </mxCell>
        <mxCell id="-eOnYCEfxz8007zjaOuk-4" value="&lt;div&gt;&lt;font style=&quot;font-size: 18px;&quot;&gt;Item 2- preencher os campos com dados válidos:&lt;/font&gt;&lt;/div&gt;&lt;div&gt;&lt;font style=&quot;font-size: 18px;&quot;&gt;&lt;br&gt;&lt;/font&gt;&lt;/div&gt;&lt;div&gt;&lt;font size=&quot;3&quot;&gt;&lt;span style=&quot;white-space: pre;&quot;&gt;&#x9;&lt;/span&gt;&lt;span style=&quot;white-space: pre;&quot;&gt;&#x9;&lt;/span&gt;&lt;span style=&quot;white-space: pre;&quot;&gt;&#x9;&lt;/span&gt;&lt;span style=&quot;white-space: pre;&quot;&gt;&#x9;ºNOME&lt;/span&gt;&lt;/font&gt;&lt;/div&gt;&lt;div&gt;&lt;font size=&quot;3&quot;&gt;&lt;span style=&quot;white-space: pre;&quot;&gt;&lt;span style=&quot;white-space: pre;&quot;&gt;&#x9;&lt;/span&gt;&lt;span style=&quot;white-space: pre;&quot;&gt;&#x9;&lt;/span&gt;&lt;span style=&quot;white-space: pre;&quot;&gt;&#x9;&lt;/span&gt;&lt;span style=&quot;white-space: pre;&quot;&gt;&#x9;ºSENHA&lt;/span&gt;&lt;/span&gt;&lt;/font&gt;&lt;/div&gt;&lt;div&gt;&lt;font size=&quot;3&quot;&gt;&lt;span style=&quot;white-space: pre;&quot;&gt;&lt;span style=&quot;white-space: pre;&quot;&gt;&lt;span style=&quot;white-space: pre;&quot;&gt;&#x9;&lt;/span&gt;&lt;span style=&quot;white-space: pre;&quot;&gt;&#x9;&lt;/span&gt;&lt;span style=&quot;white-space: pre;&quot;&gt;&lt;span style=&quot;white-space: pre;&quot;&gt;&#x9;     ºEMAIL&lt;/span&gt;&lt;/span&gt;&lt;/span&gt;&lt;/span&gt;&lt;/font&gt;&lt;/div&gt;&lt;div&gt;&lt;font size=&quot;3&quot;&gt;&lt;span style=&quot;white-space: pre;&quot;&gt;&lt;span style=&quot;white-space: pre;&quot;&gt;&lt;span style=&quot;white-space: pre;&quot;&gt;&lt;span style=&quot;white-space: pre;&quot;&gt;&lt;br&gt;&lt;/span&gt;&lt;/span&gt;&lt;/span&gt;&lt;/span&gt;&lt;/font&gt;&lt;/div&gt;" style="text;strokeColor=none;fillColor=none;align=left;verticalAlign=middle;spacingLeft=4;spacingRight=4;overflow=hidden;points=[[0,0.5],[1,0.5]];portConstraint=eastwest;rotatable=0;whiteSpace=wrap;html=1;" vertex="1" parent="-eOnYCEfxz8007zjaOuk-2">
          <mxGeometry y="90" width="530" height="120" as="geometry" />
        </mxCell>
        <mxCell id="-eOnYCEfxz8007zjaOuk-5" value="&lt;font style=&quot;font-size: 18px;&quot;&gt;Item 3&lt;/font&gt;- &lt;font style=&quot;font-size: 18px;&quot;&gt;Clicar em conectar.&lt;/font&gt;" style="text;strokeColor=none;fillColor=none;align=left;verticalAlign=middle;spacingLeft=4;spacingRight=4;overflow=hidden;points=[[0,0.5],[1,0.5]];portConstraint=eastwest;rotatable=0;whiteSpace=wrap;html=1;" vertex="1" parent="-eOnYCEfxz8007zjaOuk-2">
          <mxGeometry y="210" width="530" height="30" as="geometry" />
        </mxCell>
        <mxCell id="-eOnYCEfxz8007zjaOuk-6" value="&lt;font style=&quot;font-size: 18px;&quot;&gt;Item 4&lt;/font&gt;-&lt;font style=&quot;font-size: 18px;&quot;&gt;Verificar se o login do usuário foi conectado corretamente se sim ir para o teste 2&lt;/font&gt;." style="text;strokeColor=none;fillColor=none;align=left;verticalAlign=middle;spacingLeft=4;spacingRight=4;overflow=hidden;points=[[0,0.5],[1,0.5]];portConstraint=eastwest;rotatable=0;whiteSpace=wrap;html=1;" vertex="1" parent="-eOnYCEfxz8007zjaOuk-2">
          <mxGeometry y="240" width="530" height="60" as="geometry" />
        </mxCell>
        <mxCell id="-eOnYCEfxz8007zjaOuk-7" value="&lt;font style=&quot;font-size: 24px;&quot;&gt;Resultado esperado&lt;/font&gt;" style="swimlane;fontStyle=0;childLayout=stackLayout;horizontal=1;startSize=60;horizontalStack=0;resizeParent=1;resizeParentMax=0;resizeLast=0;collapsible=1;marginBottom=0;whiteSpace=wrap;html=1;" vertex="1" parent="39ut7mN1jGlLOAhWrBHH-1">
          <mxGeometry x="545" y="400" width="510" height="300" as="geometry" />
        </mxCell>
        <mxCell id="-eOnYCEfxz8007zjaOuk-8" value="&lt;div&gt;&lt;font style=&quot;font-size: 18px;&quot;&gt;Item 1-Sistema exibe a pagina do TINKERCAD na pagina principal.&lt;/font&gt;&lt;/div&gt;" style="text;strokeColor=none;fillColor=none;align=left;verticalAlign=middle;spacingLeft=4;spacingRight=4;overflow=hidden;points=[[0,0.5],[1,0.5]];portConstraint=eastwest;rotatable=0;whiteSpace=wrap;html=1;" vertex="1" parent="-eOnYCEfxz8007zjaOuk-7">
          <mxGeometry y="60" width="510" height="50" as="geometry" />
        </mxCell>
        <mxCell id="-eOnYCEfxz8007zjaOuk-9" value="&lt;div&gt;&lt;font style=&quot;font-size: 18px;&quot;&gt;Item 2-Após o login, exibe a menssagem de logim efetuado com sucesso se tiver sucesso.&lt;/font&gt;&lt;/div&gt;&lt;div&gt;&lt;font style=&quot;font-size: 18px;&quot;&gt;&lt;br&gt;&lt;/font&gt;&lt;/div&gt;" style="text;strokeColor=none;fillColor=none;align=left;verticalAlign=middle;spacingLeft=4;spacingRight=4;overflow=hidden;points=[[0,0.5],[1,0.5]];portConstraint=eastwest;rotatable=0;whiteSpace=wrap;html=1;" vertex="1" parent="-eOnYCEfxz8007zjaOuk-7">
          <mxGeometry y="110" width="510" height="50" as="geometry" />
        </mxCell>
        <mxCell id="-eOnYCEfxz8007zjaOuk-10" value="&lt;div&gt;&lt;font style=&quot;font-size: 18px;&quot;&gt;Item3-Após o login, exibe a menssagem de logim não efetuado com sucesso ,se caso der algum erro.&lt;/font&gt;&lt;/div&gt;&lt;div&gt;&lt;font size=&quot;3&quot;&gt;&lt;br&gt;&lt;br&gt;&lt;/font&gt;&lt;/div&gt;" style="text;strokeColor=none;fillColor=none;align=left;verticalAlign=middle;spacingLeft=4;spacingRight=4;overflow=hidden;points=[[0,0.5],[1,0.5]];portConstraint=eastwest;rotatable=0;whiteSpace=wrap;html=1;" vertex="1" parent="-eOnYCEfxz8007zjaOuk-7">
          <mxGeometry y="160" width="510" height="46" as="geometry" />
        </mxCell>
        <mxCell id="-eOnYCEfxz8007zjaOuk-11" value="&lt;div&gt;&lt;font style=&quot;font-size: 18px;&quot;&gt;Item4-Após o login ,desconectar da pagina do TINKERCAD.&lt;/font&gt;&lt;/div&gt;&lt;div&gt;&lt;font size=&quot;3&quot;&gt;&lt;br&gt;&lt;br&gt;&lt;/font&gt;&lt;/div&gt;" style="text;strokeColor=none;fillColor=none;align=left;verticalAlign=middle;spacingLeft=4;spacingRight=4;overflow=hidden;points=[[0,0.5],[1,0.5]];portConstraint=eastwest;rotatable=0;whiteSpace=wrap;html=1;" vertex="1" parent="-eOnYCEfxz8007zjaOuk-7">
          <mxGeometry y="206" width="510" height="34" as="geometry" />
        </mxCell>
        <mxCell id="-eOnYCEfxz8007zjaOuk-12" value="&lt;font style=&quot;font-size: 18px;&quot;&gt;Item 5-O registro do login é salvo no banco de dados passando para o teste 2.&lt;/font&gt;" style="text;strokeColor=none;fillColor=none;align=left;verticalAlign=middle;spacingLeft=4;spacingRight=4;overflow=hidden;points=[[0,0.5],[1,0.5]];portConstraint=eastwest;rotatable=0;whiteSpace=wrap;html=1;" vertex="1" parent="-eOnYCEfxz8007zjaOuk-7">
          <mxGeometry y="240" width="510" height="60" as="geometry" />
        </mxCell>
        <mxCell id="-eOnYCEfxz8007zjaOuk-13" value="&lt;font style=&quot;font-size: 12px;&quot;&gt;X&lt;/font&gt;" style="ellipse;whiteSpace=wrap;html=1;aspect=fixed;fillColor=light-dark(#a20025, #dc0e37);fontColor=#ffffff;strokeColor=#6F0000;" vertex="1" parent="39ut7mN1jGlLOAhWrBHH-1">
          <mxGeometry x="1055" y="700" width="46" height="46" as="geometry" />
        </mxCell>
        <mxCell id="-eOnYCEfxz8007zjaOuk-14" value="&lt;font style=&quot;font-size: 8px;&quot;&gt;OK&lt;/font&gt;" style="ellipse;whiteSpace=wrap;html=1;aspect=fixed;fillColor=light-dark(#a20025, #00ff00);fontColor=#ffffff;strokeColor=#6F0000;" vertex="1" parent="39ut7mN1jGlLOAhWrBHH-1">
          <mxGeometry x="1105" y="698" width="48" height="48" as="geometry" />
        </mxCell>
        <mxCell id="-eOnYCEfxz8007zjaOuk-15" value="&lt;font style=&quot;font-size: 24px;&quot;&gt;Pré condições&lt;/font&gt;" style="swimlane;fontStyle=0;childLayout=stackLayout;horizontal=1;startSize=40;horizontalStack=0;resizeParent=1;resizeParentMax=0;resizeLast=0;collapsible=1;marginBottom=0;whiteSpace=wrap;html=1;" vertex="1" parent="39ut7mN1jGlLOAhWrBHH-1">
          <mxGeometry x="15" y="210" width="1140" height="190" as="geometry" />
        </mxCell>
        <mxCell id="-eOnYCEfxz8007zjaOuk-16" value="&lt;font style=&quot;font-size: 18px;&quot;&gt;Item -1 Nome do usuário&amp;nbsp; é autenticado na pagina do TINKERCAD usando o NOME Fabiano.&lt;/font&gt;" style="text;strokeColor=none;fillColor=none;align=left;verticalAlign=middle;spacingLeft=4;spacingRight=4;overflow=hidden;points=[[0,0.5],[1,0.5]];portConstraint=eastwest;rotatable=0;whiteSpace=wrap;html=1;" vertex="1" parent="-eOnYCEfxz8007zjaOuk-15">
          <mxGeometry y="40" width="1140" height="50" as="geometry" />
        </mxCell>
        <mxCell id="-eOnYCEfxz8007zjaOuk-17" value="&lt;div&gt;&lt;font style=&quot;font-size: 18px;&quot;&gt;Item- 2 A senha é autenticada na pagina do TINKERCAD&lt;/font&gt;&lt;/div&gt;&lt;font style=&quot;font-size: 18px;&quot;&gt;usando as senha 123456789.&lt;/font&gt;" style="text;strokeColor=none;fillColor=none;align=left;verticalAlign=middle;spacingLeft=4;spacingRight=4;overflow=hidden;points=[[0,0.5],[1,0.5]];portConstraint=eastwest;rotatable=0;whiteSpace=wrap;html=1;" vertex="1" parent="-eOnYCEfxz8007zjaOuk-15">
          <mxGeometry y="90" width="1140" height="50" as="geometry" />
        </mxCell>
        <mxCell id="-eOnYCEfxz8007zjaOuk-18" value="&lt;div&gt;&lt;font style=&quot;font-size: 18px;&quot;&gt;Item -3 O email é autenticado na pagina do TINKERCAD usando o EMAIL fabiano@gmail.com.&lt;/font&gt;&lt;/div&gt;" style="text;strokeColor=none;fillColor=none;align=left;verticalAlign=middle;spacingLeft=4;spacingRight=4;overflow=hidden;points=[[0,0.5],[1,0.5]];portConstraint=eastwest;rotatable=0;whiteSpace=wrap;html=1;" vertex="1" parent="-eOnYCEfxz8007zjaOuk-15">
          <mxGeometry y="140" width="1140" height="50" as="geometry" />
        </mxCell>
        <mxCell id="-eOnYCEfxz8007zjaOuk-19" value="STATUS" style="swimlane;childLayout=stackLayout;resizeParent=1;resizeParentMax=0;horizontal=1;startSize=56;horizontalStack=0;html=1;" vertex="1" parent="39ut7mN1jGlLOAhWrBHH-1">
          <mxGeometry x="1055" y="400" width="100" height="110" as="geometry" />
        </mxCell>
        <mxCell id="-eOnYCEfxz8007zjaOuk-20" value="" style="swimlane;startSize=50;horizontal=0;html=1;" vertex="1" parent="-eOnYCEfxz8007zjaOuk-19">
          <mxGeometry y="56" width="100" height="54" as="geometry" />
        </mxCell>
        <mxCell id="-eOnYCEfxz8007zjaOuk-21" value="" style="swimlane;startSize=50;horizontal=0;html=1;" vertex="1" parent="39ut7mN1jGlLOAhWrBHH-1">
          <mxGeometry x="1055" y="650" width="100" height="50" as="geometry" />
        </mxCell>
        <mxCell id="-eOnYCEfxz8007zjaOuk-23" value="" style="swimlane;startSize=50;horizontal=0;html=1;" vertex="1" parent="39ut7mN1jGlLOAhWrBHH-1">
          <mxGeometry x="1055" y="510" width="100" height="50" as="geometry" />
        </mxCell>
        <mxCell id="-eOnYCEfxz8007zjaOuk-24" value="" style="swimlane;startSize=50;horizontal=0;html=1;" vertex="1" parent="39ut7mN1jGlLOAhWrBHH-1">
          <mxGeometry x="1055" y="560" width="100" height="50" as="geometry" />
        </mxCell>
        <mxCell id="-eOnYCEfxz8007zjaOuk-25" value="" style="swimlane;startSize=50;horizontal=0;html=1;" vertex="1" parent="39ut7mN1jGlLOAhWrBHH-1">
          <mxGeometry x="1055" y="610" width="100" height="40" as="geometry" />
        </mxCell>
      </root>
    </mxGraphModel>
  </diagram>
  <diagram id="o0Qb89PQs3ZvBwmW5NfI" name="Página-2 teste">
    <mxGraphModel dx="2495" dy="610" grid="1" gridSize="10" guides="1" tooltips="1" connect="1" arrows="1" fold="1" page="1" pageScale="1" pageWidth="1169" pageHeight="827" math="0" shadow="0">
      <root>
        <mxCell id="0" />
        <mxCell id="1" parent="0" />
        <mxCell id="-2i0X9hIoeVEErZCNpSx-1" value="&lt;font style=&quot;font-size: 24px;&quot;&gt;Objetivo do teste&lt;/font&gt;" style="swimlane;whiteSpace=wrap;html=1;startSize=40;" vertex="1" parent="1">
          <mxGeometry x="-1154" y="110" width="1140" height="100" as="geometry" />
        </mxCell>
        <mxCell id="-2i0X9hIoeVEErZCNpSx-2" value="&lt;font style=&quot;font-size: 24px;&quot;&gt;Realiza&amp;nbsp; o acesso da pasta exercícios da&amp;nbsp; pagina do TINKERCAD.&lt;/font&gt;" style="rounded=1;whiteSpace=wrap;html=1;" vertex="1" parent="-2i0X9hIoeVEErZCNpSx-1">
          <mxGeometry x="15" y="50" width="1100" height="40" as="geometry" />
        </mxCell>
        <mxCell id="-2i0X9hIoeVEErZCNpSx-3" value="&lt;font style=&quot;font-size: 24px;&quot;&gt;Ações do passo&lt;/font&gt;" style="swimlane;fontStyle=0;childLayout=stackLayout;horizontal=1;startSize=60;horizontalStack=0;resizeParent=1;resizeParentMax=0;resizeLast=0;collapsible=1;marginBottom=0;whiteSpace=wrap;html=1;" vertex="1" parent="1">
          <mxGeometry x="-1154" y="400" width="530" height="300" as="geometry" />
        </mxCell>
        <mxCell id="-2i0X9hIoeVEErZCNpSx-4" value="&lt;font style=&quot;font-size: 18px;&quot;&gt;Item -1 Acessar&amp;nbsp; a pasta exercícios.&lt;/font&gt;&lt;span class=&quot;collection-heading ng-star-inserted&quot;&gt;&lt;/span&gt;" style="text;strokeColor=none;fillColor=none;align=left;verticalAlign=middle;spacingLeft=4;spacingRight=4;overflow=hidden;points=[[0,0.5],[1,0.5]];portConstraint=eastwest;rotatable=0;whiteSpace=wrap;html=1;" vertex="1" parent="-2i0X9hIoeVEErZCNpSx-3">
          <mxGeometry y="60" width="530" height="30" as="geometry" />
        </mxCell>
        <mxCell id="-2i0X9hIoeVEErZCNpSx-5" value="&lt;div&gt;&lt;font style=&quot;font-size: 18px;&quot;&gt;Item- 2 Acessar a&amp;nbsp; pasta coleções Fabiano.&lt;/font&gt;&lt;/div&gt;" style="text;strokeColor=none;fillColor=none;align=left;verticalAlign=middle;spacingLeft=4;spacingRight=4;overflow=hidden;points=[[0,0.5],[1,0.5]];portConstraint=eastwest;rotatable=0;whiteSpace=wrap;html=1;" vertex="1" parent="-2i0X9hIoeVEErZCNpSx-3">
          <mxGeometry y="90" width="530" height="100" as="geometry" />
        </mxCell>
        <mxCell id="-2i0X9hIoeVEErZCNpSx-6" value="&lt;font style=&quot;font-size: 18px;&quot;&gt;Item 3&lt;/font&gt;-&lt;font style=&quot;font-size: 18px;&quot;&gt;Verificar se&amp;nbsp;&lt;/font&gt;&lt;font style=&quot;font-size: 18px;&quot;&gt;Fabiano Exercício nº 12.&lt;/font&gt;&lt;font style=&quot;font-size: 18px;&quot;&gt;&amp;nbsp;esta cadastrado&amp;nbsp;&lt;/font&gt;." style="text;strokeColor=none;fillColor=none;align=left;verticalAlign=middle;spacingLeft=4;spacingRight=4;overflow=hidden;points=[[0,0.5],[1,0.5]];portConstraint=eastwest;rotatable=0;whiteSpace=wrap;html=1;" vertex="1" parent="-2i0X9hIoeVEErZCNpSx-3">
          <mxGeometry y="190" width="530" height="30" as="geometry" />
        </mxCell>
        <mxCell id="-2i0X9hIoeVEErZCNpSx-7" value="&lt;font style=&quot;font-size: 18px;&quot;&gt;Item 4&lt;/font&gt;-&lt;font style=&quot;font-size: 18px;&quot;&gt;Acessar&amp;nbsp;&lt;/font&gt;&lt;font style=&quot;font-size: 18px;&quot;&gt;Exercício nº 12&lt;/font&gt;." style="text;strokeColor=none;fillColor=none;align=left;verticalAlign=middle;spacingLeft=4;spacingRight=4;overflow=hidden;points=[[0,0.5],[1,0.5]];portConstraint=eastwest;rotatable=0;whiteSpace=wrap;html=1;" vertex="1" parent="-2i0X9hIoeVEErZCNpSx-3">
          <mxGeometry y="220" width="530" height="80" as="geometry" />
        </mxCell>
        <mxCell id="-2i0X9hIoeVEErZCNpSx-8" value="&lt;font style=&quot;font-size: 24px;&quot;&gt;Resultado esperado&lt;/font&gt;" style="swimlane;fontStyle=0;childLayout=stackLayout;horizontal=1;startSize=60;horizontalStack=0;resizeParent=1;resizeParentMax=0;resizeLast=0;collapsible=1;marginBottom=0;whiteSpace=wrap;html=1;" vertex="1" parent="1">
          <mxGeometry x="-624" y="400" width="510" height="300" as="geometry" />
        </mxCell>
        <mxCell id="-2i0X9hIoeVEErZCNpSx-9" value="&lt;div&gt;&lt;font style=&quot;font-size: 18px;&quot;&gt;Item 1-Sistema exibe a pagina do TINKERCAD na pasta exercícios.&lt;/font&gt;&lt;/div&gt;" style="text;strokeColor=none;fillColor=none;align=left;verticalAlign=middle;spacingLeft=4;spacingRight=4;overflow=hidden;points=[[0,0.5],[1,0.5]];portConstraint=eastwest;rotatable=0;whiteSpace=wrap;html=1;" vertex="1" parent="-2i0X9hIoeVEErZCNpSx-8">
          <mxGeometry y="60" width="510" height="50" as="geometry" />
        </mxCell>
        <mxCell id="-2i0X9hIoeVEErZCNpSx-10" value="&lt;div&gt;&lt;font style=&quot;font-size: 18px;&quot;&gt;Item 2-Após o acesso, exibe a mensagem de acesso efetuado com sucesso.&lt;/font&gt;&lt;/div&gt;&lt;div&gt;&lt;font style=&quot;font-size: 18px;&quot;&gt;&lt;br&gt;&lt;/font&gt;&lt;/div&gt;" style="text;strokeColor=none;fillColor=none;align=left;verticalAlign=middle;spacingLeft=4;spacingRight=4;overflow=hidden;points=[[0,0.5],[1,0.5]];portConstraint=eastwest;rotatable=0;whiteSpace=wrap;html=1;" vertex="1" parent="-2i0X9hIoeVEErZCNpSx-8">
          <mxGeometry y="110" width="510" height="50" as="geometry" />
        </mxCell>
        <mxCell id="-2i0X9hIoeVEErZCNpSx-11" value="&lt;div&gt;&lt;font style=&quot;font-size: 18px;&quot;&gt;Item3-Após o acesso, exibe a mensagem de acesso não efetuado com sucesso ,se caso der algum erro.&lt;/font&gt;&lt;/div&gt;&lt;div&gt;&lt;font size=&quot;3&quot;&gt;&lt;br&gt;&lt;br&gt;&lt;/font&gt;&lt;/div&gt;" style="text;strokeColor=none;fillColor=none;align=left;verticalAlign=middle;spacingLeft=4;spacingRight=4;overflow=hidden;points=[[0,0.5],[1,0.5]];portConstraint=eastwest;rotatable=0;whiteSpace=wrap;html=1;" vertex="1" parent="-2i0X9hIoeVEErZCNpSx-8">
          <mxGeometry y="160" width="510" height="50" as="geometry" />
        </mxCell>
        <mxCell id="-2i0X9hIoeVEErZCNpSx-12" value="&lt;div&gt;&lt;font style=&quot;font-size: 18px;&quot;&gt;Item4-Após o acesso ,desconectar da pagina do TINKERCAD.&lt;/font&gt;&lt;/div&gt;&lt;div&gt;&lt;font size=&quot;3&quot;&gt;&lt;br&gt;&lt;br&gt;&lt;/font&gt;&lt;/div&gt;" style="text;strokeColor=none;fillColor=none;align=left;verticalAlign=middle;spacingLeft=4;spacingRight=4;overflow=hidden;points=[[0,0.5],[1,0.5]];portConstraint=eastwest;rotatable=0;whiteSpace=wrap;html=1;" vertex="1" parent="-2i0X9hIoeVEErZCNpSx-8">
          <mxGeometry y="210" width="510" height="50" as="geometry" />
        </mxCell>
        <mxCell id="-2i0X9hIoeVEErZCNpSx-13" value="&lt;font style=&quot;font-size: 18px;&quot;&gt;Item 5-O registro do logimacesso é salvo no banco de dados.&lt;/font&gt;" style="text;strokeColor=none;fillColor=none;align=left;verticalAlign=middle;spacingLeft=4;spacingRight=4;overflow=hidden;points=[[0,0.5],[1,0.5]];portConstraint=eastwest;rotatable=0;whiteSpace=wrap;html=1;" vertex="1" parent="-2i0X9hIoeVEErZCNpSx-8">
          <mxGeometry y="260" width="510" height="40" as="geometry" />
        </mxCell>
        <mxCell id="-2i0X9hIoeVEErZCNpSx-14" value="&lt;font style=&quot;font-size: 12px;&quot;&gt;X&lt;/font&gt;" style="ellipse;whiteSpace=wrap;html=1;aspect=fixed;fillColor=light-dark(#a20025, #dc0e37);fontColor=#ffffff;strokeColor=#6F0000;" vertex="1" parent="1">
          <mxGeometry x="-114" y="710" width="46" height="46" as="geometry" />
        </mxCell>
        <mxCell id="-2i0X9hIoeVEErZCNpSx-15" value="&lt;font style=&quot;font-size: 8px;&quot;&gt;OK&lt;/font&gt;" style="ellipse;whiteSpace=wrap;html=1;aspect=fixed;fillColor=light-dark(#a20025, #00ff00);fontColor=#ffffff;strokeColor=#6F0000;" vertex="1" parent="1">
          <mxGeometry x="-62" y="708" width="48" height="48" as="geometry" />
        </mxCell>
        <mxCell id="-2i0X9hIoeVEErZCNpSx-16" value="&lt;font style=&quot;font-size: 24px;&quot;&gt;Pré condições&lt;/font&gt;" style="swimlane;fontStyle=0;childLayout=stackLayout;horizontal=1;startSize=40;horizontalStack=0;resizeParent=1;resizeParentMax=0;resizeLast=0;collapsible=1;marginBottom=0;whiteSpace=wrap;html=1;" vertex="1" parent="1">
          <mxGeometry x="-1154" y="210" width="1140" height="190" as="geometry" />
        </mxCell>
        <mxCell id="-2i0X9hIoeVEErZCNpSx-17" value="&lt;font style=&quot;font-size: 18px;&quot;&gt;Item -1 Acessar&amp;nbsp; a pasta Exercícios.&lt;/font&gt;&lt;span class=&quot;collection-heading ng-star-inserted&quot;&gt;&lt;/span&gt;" style="text;strokeColor=none;fillColor=none;align=left;verticalAlign=middle;spacingLeft=4;spacingRight=4;overflow=hidden;points=[[0,0.5],[1,0.5]];portConstraint=eastwest;rotatable=0;whiteSpace=wrap;html=1;" vertex="1" parent="-2i0X9hIoeVEErZCNpSx-16">
          <mxGeometry y="40" width="1140" height="50" as="geometry" />
        </mxCell>
        <mxCell id="-2i0X9hIoeVEErZCNpSx-18" value="&lt;div&gt;&lt;font style=&quot;font-size: 18px;&quot;&gt;Item- 2 Acessar a&amp;nbsp; pasta coleções Fabiano.&lt;/font&gt;&lt;/div&gt;" style="text;strokeColor=none;fillColor=none;align=left;verticalAlign=middle;spacingLeft=4;spacingRight=4;overflow=hidden;points=[[0,0.5],[1,0.5]];portConstraint=eastwest;rotatable=0;whiteSpace=wrap;html=1;" vertex="1" parent="-2i0X9hIoeVEErZCNpSx-16">
          <mxGeometry y="90" width="1140" height="50" as="geometry" />
        </mxCell>
        <mxCell id="-2i0X9hIoeVEErZCNpSx-19" value="&lt;div&gt;&lt;font style=&quot;font-size: 18px;&quot;&gt;Item -3 O&amp;nbsp; Exercício nº 12 deve estar cadastrado&amp;nbsp; para dar sequencia&amp;nbsp; nos passos.&lt;/font&gt;&lt;/div&gt;" style="text;strokeColor=none;fillColor=none;align=left;verticalAlign=middle;spacingLeft=4;spacingRight=4;overflow=hidden;points=[[0,0.5],[1,0.5]];portConstraint=eastwest;rotatable=0;whiteSpace=wrap;html=1;" vertex="1" parent="-2i0X9hIoeVEErZCNpSx-16">
          <mxGeometry y="140" width="1140" height="50" as="geometry" />
        </mxCell>
        <mxCell id="-2i0X9hIoeVEErZCNpSx-20" value="STATUS" style="swimlane;childLayout=stackLayout;resizeParent=1;resizeParentMax=0;horizontal=1;startSize=56;horizontalStack=0;html=1;" vertex="1" parent="1">
          <mxGeometry x="-114" y="400" width="100" height="110" as="geometry" />
        </mxCell>
        <mxCell id="-2i0X9hIoeVEErZCNpSx-21" value="" style="swimlane;startSize=50;horizontal=0;html=1;" vertex="1" parent="-2i0X9hIoeVEErZCNpSx-20">
          <mxGeometry y="56" width="100" height="54" as="geometry" />
        </mxCell>
        <mxCell id="-2i0X9hIoeVEErZCNpSx-22" value="" style="swimlane;startSize=50;horizontal=0;html=1;" vertex="1" parent="1">
          <mxGeometry x="-114" y="650" width="100" height="50" as="geometry" />
        </mxCell>
        <mxCell id="-2i0X9hIoeVEErZCNpSx-24" value="" style="swimlane;startSize=50;horizontal=0;html=1;" vertex="1" parent="1">
          <mxGeometry x="-114" y="510" width="100" height="50" as="geometry" />
        </mxCell>
        <mxCell id="-2i0X9hIoeVEErZCNpSx-25" value="" style="swimlane;startSize=50;horizontal=0;html=1;" vertex="1" parent="1">
          <mxGeometry x="-114" y="560" width="100" height="40" as="geometry" />
        </mxCell>
        <mxCell id="-2i0X9hIoeVEErZCNpSx-26" value="" style="swimlane;startSize=50;horizontal=0;html=1;" vertex="1" parent="1">
          <mxGeometry x="-114" y="600" width="100" height="50" as="geometry" />
        </mxCell>
      </root>
    </mxGraphModel>
  </diagram>
</mxfile>
